{"title":"AKB0048 Next Stage","uid":9846281,"size":1146848155,"categoryP":"video","categoryS":"tv_shows","magnet":"?xt=urn:btih:f28b2beaa5dbca823ce5d6189cc03244e22ce8e4&amp;dn=AKB0048+Next+Stage+&amp;tr=udp%3A%2F%2Ftracker.openbittorrent.com%3A80&amp;tr=udp%3A%2F%2Fopen.demonii.com%3A1337&amp;tr=udp%3A%2F%2Ftracker.coppersurfer.tk%3A6969&amp;tr=udp%3A%2F%2Fexodus.desync.com%3A6969","seeders":2,"leechers":0,"uploader":"p7trick","files":-1,"time":1396081439,"description":"watchcartoononline\n\nAKB0048 Next Stage  eps 1-13 ENGLISH DUBBED\n_________________________________________________________\n\nFormat                                   : MPEG-4\nFormat profile                           : Base Media\nCodec ID                                 : isom\nFile size                                : 95.9 MiB\nDuration                                 : 26mn 32s\nOverall bit rate                         : 505 Kbps\nWriting application                      : Lavf55.0.100\n\nVideo\nID                                       : 1\nFormat                                   : AVC\nFormat/Info                              : Advanced Video Codec\nFormat profile                           : &lt;a class=&quot;__cf_email__&quot; href=&quot;/cdn-cgi/l/email-protection&quot; data-cfemail=&quot;40022133252c292e25000c736e70&quot;&gt;[email&amp;#160;protected]&lt;/a&gt;&lt;script cf-hash='f9e31' type=&quot;text/javascript&quot;&gt;\n/* &lt;![CDATA[ */!function(){try{var t=&quot;currentScript&quot;in document?document.currentScript:function(){for(var t=document.getElementsByTagName(&quot;script&quot;),e=t.length;e--;)if(t[e].getAttribute(&quot;cf-hash&quot;))return t[e]}();if(t&amp;&amp;t.previousSibling){var e,r,n,i,c=t.previousSibling,a=c.getAttribute(&quot;data-cfemail&quot;);if(a){for(e=&quot;&quot;,r=parseInt(a.substr(0,2),16),n=2;a.length-n;n+=2)i=parseInt(a.substr(n,2),16)^r,e+=String.fromCharCode(i);e=document.createTextNode(e),c.parentNode.replaceChild(e,c)}}}catch(u){}}();/* ]]&gt; */&lt;/script&gt;\nFormat settings, CABAC                   : No\nFormat settings, ReFrames                : 5 frames\nCodec ID                                 : avc1\nCodec ID/Info                            : Advanced Video Coding\nDuration                                 : 26mn 32s\nBit rate                                 : 373 Kbps\nWidth                                    : 640 pixels\nHeight                                   : 360 pixels\nDisplay aspect ratio                     : 16:9\nFrame rate mode                          : Constant\nFrame rate                               : 23.976 fps\nColor space                              : YUV\nChroma subsampling                       : 4:2:0\nBit depth                                : 8 bits\nScan type                                : Progressive\nBits/(Pixel*Frame)                       : 0.067\nStream size                              : 70.7 MiB (74%)\n\n\nAudio\nID                                       : 2\nFormat                                   : AAC\nFormat/Info                              : Advanced Audio Codec\nFormat profile                           : LC\nCodec ID                                 : 40\nDuration                                 : 26mn 32s\nDuration_LastFrame                       : -6ms\nBit rate mode                            : Constant\nBit rate                                 : 128 Kbps\nChannel(s)                               : 2 channels\nChannel positions                        : Front: L R\nSampling rate                            : 44.1 KHz\nCompression mode                         : Lossy\nStream size                              : 24.3 MiB (25%)\nLanguage                                 : English\n_________________________________________________________\n\nSummary:\nThe exceptionally talented understudies of the 77th audition have become an integral part of AKB0048, with both Chieri and Nagisa showing potential to become the new Centre Nova (group member taking centre stage), a role that has been banned ever since the disappearance of the last Centre Nova Acchan.\n\nKanzaki Suzuko, also a 77th, never wanting to become a Successor, is still wondering what happened to all the previous Centre Novae, trying to find out who the mysterious Sensei-sensei actually is that writes all their songs and controls the fate of the group. Questions no member of AKB0048 is supposed to ask.\n\nIf that was not enough, the general manager Katagiri Tsubasa not only reintroduces the role of Centre Nova again, but also the General Elections where the fans decide who is most popular, to become a Successor.\n\nFor updates/requests:\nTwitter - @p7tricktorrent\nFacebook - /p7tricktorrent\nTPB - /user/p7trick/\nKAT - /user/iPirate7\n_________________________________________________________\n\nSEED!\n\nshare ratio:\n&quot;Scumbag = 0.1:1\nLeecher = 0.999:1\nMinimum = 1:1\nGood = 3:1\nGreat = 5:1\nAwesome = 10:1\n1337 = 100:1&quot;\t","torrent":{"xt":"urn:btih:f28b2beaa5dbca823ce5d6189cc03244e22ce8e4","amp;dn":"AKB0048+Next+Stage+","amp;tr":["udp%3A%2F%2Ftracker.openbittorrent.com%3A80","udp%3A%2F%2Fopen.demonii.com%3A1337","udp%3A%2F%2Ftracker.coppersurfer.tk%3A6969","udp%3A%2F%2Fexodus.desync.com%3A6969"],"infoHash":"f28b2beaa5dbca823ce5d6189cc03244e22ce8e4","infoHashBuffer":{"type":"Buffer","data":[242,139,43,234,165,219,202,130,60,229,214,24,156,192,50,68,226,44,232,228]},"announce":[],"urlList":[]}}